<svg xmlns="http://www.w3.org/2000/svg" viewBox="0 0 678.4 217.1" width="678.4" height="217.1"><defs><style>.cls-1{fill:#fed10a;}.cls-2{fill:#24bbb1;}.cls-3{fill:#ef5098;}.cls-4{fill:#17a8e0;}.cls-5{fill:#93c83e;}.cls-6{fill:#0779a1;}</style></defs><title>Asset 1</title><g id="Layer_2" data-name="Layer 2"><g id="Layer_1-2" data-name="Layer 1"><path class="cls-1" d="M83.9,92.1l51.8,23.6,52.2-45.8A54.71,54.71,0,0,0,189,58.4a58.35,58.35,0,0,0-106.5-33L73.8,70.5Z"/><path class="cls-2" d="M30.3,146.9a56.62,56.62,0,0,0-1.1,11.7,58.58,58.58,0,0,0,107,32.9l8.6-44.9-11.5-22-52-23.7Z"/><path class="cls-3" d="M30,57.3l35.5,8.4,7.8-40.3A28,28,0,0,0,30,57.3"/><path class="cls-4" d="M26.9,65.8a39.1,39.1,0,0,0-1.7,73.7L75,94.5,65.9,75Z"/><path class="cls-5" d="M145.2,191.5a28,28,0,0,0,43.2-31.9L153,151.3Z"/><path class="cls-6" d="M152.4,142l39,9.1a39.1,39.1,0,0,0,1.7-73.7l-51,44.7Z"/><path d="M321.7,156.1l4.7-.5.3,9.6a240.62,240.62,0,0,1-31.8,2.6q-17.55,0-24.9-10.2c-4.9-6.8-7.3-17.4-7.3-31.7q0-42.9,34.1-42.9c11,0,19.2,3.1,24.6,9.2s8.1,15.8,8.1,28.9l-.7,9.3H275c0,9,1.6,15.7,4.9,20s8.9,6.5,17,6.5A230,230,0,0,0,321.7,156.1Zm-4.4-35.3c0-10-1.6-17.1-4.8-21.2s-8.4-6.2-15.6-6.2-12.7,2.2-16.3,6.5-5.5,11.3-5.6,20.9Z"/><path d="M346.5,167.3V60h12.2V167.3H346.5Z"/><path d="M435.8,109.4v41.1c0,4.1,10.1,3.9,10.1,3.9l-.6,10.8c-8.6,0-15.7.7-20-3.4a71.68,71.68,0,0,1-29.3,6.1c-7.5,0-13.2-2.1-17.1-6.4s-5.9-10.3-5.9-18.3,2-13.8,6-17.5,10.3-6.1,18.9-6.9l25.6-2.4v-7c0-5.5-1.2-9.5-3.6-11.9s-5.7-3.6-9.8-3.6H378V83.1h31.3c9.2,0,15.9,2.1,20.1,6.4S435.8,100.4,435.8,109.4Zm-50.2,33.2c0,10,4.1,15,12.4,15a65.27,65.27,0,0,0,21.8-3.7l3.7-1.3V125.7L399.4,128c-4.9.4-8.4,1.8-10.6,4.2S385.6,138.1,385.6,142.6Z"/><path d="M483.5,94c-11.8,0-17.8,4.1-17.8,12.4,0,3.8,1.4,6.5,4.1,8.1s8.9,3.2,18.6,4.9,16.5,4,20.5,7.1,6,8.7,6,17.1-2.7,14.5-8.1,18.4-13.2,5.9-23.6,5.9c-6.7,0-29.2-2.5-29.2-2.5l.7-10.6c12.9,1.2,22.3,2.2,28.6,2.2s11.1-1,14.4-3,5-5.4,5-10.1-1.4-7.9-4.2-9.6-9-3.3-18.6-4.8-16.4-3.7-20.4-6.7-6-8.4-6-16.3,2.8-13.8,8.4-17.6,12.6-5.7,20.9-5.7c6.6,0,29.6,1.7,29.6,1.7V95.6C500.3,94.9,490.4,94,483.5,94Z"/><path d="M573.9,95.4H548v39c0,9.3.7,15.5,2,18.4s4.6,4.4,9.7,4.4l14.5-1,.8,10.1a111.1,111.1,0,0,1-16.6,1.8c-8.5,0-14.3-2.1-17.6-6.2s-4.9-12-4.9-23.6V95.4H524.3V84.8h11.6v-25H548V84.7h25.9Z"/><path d="M590.9,74.3V60.2h12.2V74.4H590.9Zm0,93V84.8h12.2v82.5Z"/><path d="M656.1,83.1c3.6,0,9.7.7,18.3,2l3.9.5-.5,9.9A187.31,187.31,0,0,0,658.6,94c-9.2,0-15.5,2.2-18.8,6.6s-5,12.6-5,24.5,1.5,20.2,4.6,24.9,9.5,7,19.3,7l19.2-1.5.5,10.1c-10.1,1.5-17.7,2.3-22.7,2.3-12.7,0-21.5-3.3-26.3-9.8s-7.3-17.5-7.3-33,2.6-26.4,7.8-32.6S643.9,83.1,656.1,83.1Z"/></g></g></svg>
